<?xml version="1.0" encoding="UTF-8" standalone="no"?>
<svg width="40px" height="40px" viewBox="0 0 40 40" version="1.1" xmlns="http://www.w3.org/2000/svg" xmlns:xlink="http://www.w3.org/1999/xlink">
    <!-- Generator: Sketch 39.1 (31720) - http://www.bohemiancoding.com/sketch -->
    <title>Facebook-color</title>
    <desc>Created with Sketch.</desc>
    <defs></defs>
    <g id="Icons" stroke="none" stroke-width="1" fill="none" fill-rule="evenodd">
        <g id="Color-" transform="translate(-200.000000, -160.000000)" fill="#4460A0">
            <path d="M202.207693,200 C200.988061,200 200,199.011326 200,197.792169 L200,162.207676 C200,160.988208 200.988216,160 202.207693,160 L237.792462,160 C239.011629,160 240,160.988208 240,162.207676 L240,197.792169 C240,199.011481 239.011474,200 237.792462,200 L227.599421,200 L227.599421,184.509796 L232.798768,184.509796 L233.577296,178.472988 L227.599421,178.472988 L227.599421,174.618868 C227.599421,172.871073 228.08476,171.680008 230.591075,171.680008 L233.787759,171.678611 L233.787759,166.279242 C233.234905,166.205674 231.33732,166.041309 229.129627,166.041309 C224.520695,166.041309 221.365296,168.854605 221.365296,174.021007 L221.365296,178.472988 L216.152601,178.472988 L216.152601,184.509796 L221.365296,184.509796 L221.365296,200 L202.207693,200 Z" id="Facebook"></path>
        </g>
    </g>
</svg>