<?xml version="1.0" encoding="UTF-8" standalone="no"?>
<svg width="63px" height="40px" viewBox="0 0 63 40" version="1.1" xmlns="http://www.w3.org/2000/svg" xmlns:xlink="http://www.w3.org/1999/xlink">
    <!-- Generator: Sketch 39.1 (31720) - http://www.bohemiancoding.com/sketch -->
    <title>GooglePlus-color</title>
    <desc>Created with Sketch.</desc>
    <defs></defs>
    <g id="Icons" stroke="none" stroke-width="1" fill="none" fill-rule="evenodd">
        <g id="Color-" transform="translate(-391.000000, -163.000000)" fill="#F93F2D">
            <path d="M446.938904,179.435644 L446.938904,172.50495 L441.997305,172.50495 L441.997305,179.435644 L434.881402,179.435644 L434.881402,184.386139 L441.997305,184.386139 L441.997305,191.514851 L446.938904,191.514851 L446.938904,184.386139 L453.857143,184.386139 L453.857143,179.435644 L446.938904,179.435644 L446.938904,179.435644 Z M410.964061,179.039604 L410.964061,186.960396 C410.964061,186.960396 418.634214,186.950099 421.757305,186.950099 C420.066092,192.08495 417.43637,194.881188 410.964061,194.881188 C404.41407,194.881188 399.301887,189.561782 399.301887,183 C399.301887,176.438218 404.41407,171.118812 410.964061,171.118812 C414.427134,171.118812 416.663702,172.338218 418.715256,174.037822 C420.357448,172.392673 420.22027,172.158218 424.398293,168.205545 C420.851608,164.971485 416.137718,163 410.964061,163 C399.938167,163 391,171.954257 391,183 C391,194.045545 399.938167,203 410.964061,203 C427.44469,203 431.472884,188.623762 430.137466,179.039604 L410.964061,179.039604 L410.964061,179.039604 Z" id="GooglePlus"></path>
        </g>
    </g>
</svg>